<svg width="304" height="75" viewBox="0 0 304 75" fill="none" xmlns="http://www.w3.org/2000/svg">
<g filter="url(#filter0_d)">
<rect width="300" height="70" fill="#345580"/>
</g>
<path d="M82.4189 38.3633H77.7959L76.917 41H74.1133L78.8769 28.2031H81.3203L86.1103 41H83.3066L82.4189 38.3633ZM78.5078 36.2275H81.707L80.0986 31.4375L78.5078 36.2275ZM89.9424 38.8818H95.541V41H87.3056V28.2031H89.9424V38.8818ZM104.761 35.4541H99.6982V38.8818H105.64V41H97.0615V28.2031H105.622V30.3389H99.6982V33.3887H104.761V35.4541ZM111.924 36.3154H109.823V41H107.187V28.2031H111.941C113.453 28.2031 114.619 28.54 115.439 29.2139C116.26 29.8877 116.67 30.8398 116.67 32.0703C116.67 32.9434 116.479 33.6729 116.099 34.2588C115.724 34.8389 115.152 35.3018 114.385 35.6475L117.153 40.877V41H114.323L111.924 36.3154ZM109.823 34.1797H111.95C112.612 34.1797 113.125 34.0127 113.488 33.6787C113.852 33.3389 114.033 32.873 114.033 32.2812C114.033 31.6777 113.86 31.2031 113.515 30.8574C113.175 30.5117 112.65 30.3389 111.941 30.3389H109.823V34.1797ZM127.876 30.3389H123.956V41H121.319V30.3389H117.452V28.2031H127.876V30.3389ZM135.558 38.3633H130.935L130.056 41H127.252L132.016 28.2031H134.459L139.249 41H136.445L135.558 38.3633ZM131.646 36.2275H134.846L133.237 31.4375L131.646 36.2275Z" fill="#1F4373"/>
<path d="M153.689 28.2031V36.6318C153.689 38.0322 153.25 39.1396 152.371 39.9541C151.498 40.7686 150.302 41.1758 148.785 41.1758C147.291 41.1758 146.104 40.7803 145.225 39.9893C144.346 39.1982 143.898 38.1113 143.88 36.7285V28.2031H146.517V36.6494C146.517 37.4873 146.716 38.0996 147.115 38.4863C147.519 38.8672 148.076 39.0576 148.785 39.0576C150.267 39.0576 151.02 38.2783 151.044 36.7197V28.2031H153.689ZM163.55 35.7705H158.488V41H155.851V28.2031H164.183V30.3389H158.488V33.6436H163.55V35.7705ZM173.412 35.4541H168.349V38.8818H174.291V41H165.713V28.2031H174.273V30.3389H168.349V33.3887H173.412V35.4541ZM182.473 37.6426C182.473 37.1445 182.297 36.7637 181.946 36.5C181.594 36.2305 180.962 35.9492 180.047 35.6562C179.133 35.3574 178.41 35.0645 177.877 34.7773C176.423 33.9922 175.697 32.9346 175.697 31.6045C175.697 30.9131 175.89 30.2979 176.277 29.7588C176.67 29.2139 177.229 28.7891 177.956 28.4844C178.688 28.1797 179.508 28.0273 180.417 28.0273C181.331 28.0273 182.145 28.1943 182.86 28.5283C183.575 28.8564 184.129 29.3223 184.521 29.9258C184.92 30.5293 185.119 31.2148 185.119 31.9824H182.482C182.482 31.3965 182.297 30.9424 181.928 30.6201C181.559 30.292 181.041 30.1279 180.373 30.1279C179.728 30.1279 179.227 30.2656 178.87 30.541C178.512 30.8105 178.334 31.168 178.334 31.6133C178.334 32.0293 178.542 32.3779 178.958 32.6592C179.38 32.9404 179.998 33.2041 180.812 33.4502C182.312 33.9014 183.405 34.4609 184.09 35.1289C184.776 35.7969 185.119 36.6289 185.119 37.625C185.119 38.7324 184.7 39.6025 183.862 40.2354C183.024 40.8623 181.896 41.1758 180.478 41.1758C179.494 41.1758 178.597 40.9971 177.789 40.6396C176.98 40.2764 176.362 39.7812 175.934 39.1543C175.512 38.5273 175.301 37.8008 175.301 36.9746H177.947C177.947 38.3867 178.791 39.0928 180.478 39.0928C181.105 39.0928 181.594 38.9668 181.946 38.7148C182.297 38.457 182.473 38.0996 182.473 37.6426Z" fill="#819096"/>
<g clip-path="url(#clip0)">
<g filter="url(#filter1_d)">
<path d="M43.4848 56.9697C56.0368 56.9697 66.2121 46.7943 66.2121 34.2424C66.2121 21.6905 56.0368 11.5152 43.4848 11.5152C30.9329 11.5152 20.7576 21.6905 20.7576 34.2424C20.7576 46.7943 30.9329 56.9697 43.4848 56.9697Z" fill="#E9EAEC"/>
<path d="M43.4848 56.9697C56.0368 56.9697 66.2121 46.7943 66.2121 34.2424C66.2121 21.6905 56.0368 11.5152 43.4848 11.5152C30.9329 11.5152 20.7576 21.6905 20.7576 34.2424C20.7576 46.7943 30.9329 56.9697 43.4848 56.9697Z" fill="url(#paint0_linear)"/>
</g>
<path d="M39.8765 18.5227C41.4802 15.7449 45.4896 15.7449 47.0933 18.5227L58.9028 38.9773C60.5066 41.7551 58.5019 45.2273 55.2944 45.2273H31.6754C28.4679 45.2273 26.4633 41.7551 28.067 38.9773L39.8765 18.5227Z" fill="white" stroke="#E30514"/>
<path d="M40.8605 19.0909C42.0268 17.0707 44.9428 17.0707 46.1091 19.0909L57.9186 39.5455C59.085 41.5657 57.627 44.0909 55.2943 44.0909H31.6753C29.3426 44.0909 27.8846 41.5657 29.051 39.5455L40.8605 19.0909Z" fill="#E30514"/>
<path d="M44.8077 35.5771H42.677L42.3752 26.6193H45.1095L44.8077 35.5771ZM43.7423 36.9798C44.1744 36.9798 44.5206 37.107 44.781 37.3615C45.0474 37.616 45.1806 37.9415 45.1806 38.338C45.1806 38.7287 45.0474 39.0513 44.781 39.3058C44.5206 39.5602 44.1744 39.6875 43.7423 39.6875C43.3162 39.6875 42.97 39.5602 42.7037 39.3058C42.4432 39.0513 42.313 38.7287 42.313 38.338C42.313 37.9474 42.4432 37.6249 42.7037 37.3704C42.97 37.11 43.3162 36.9798 43.7423 36.9798Z" fill="white"/>
</g>
<defs>
<filter id="filter0_d" x="-4" y="-3" width="308" height="78" filterUnits="userSpaceOnUse" color-interpolation-filters="sRGB">
<feFlood flood-opacity="0" result="BackgroundImageFix"/>
<feColorMatrix in="SourceAlpha" type="matrix" values="0 0 0 0 0 0 0 0 0 0 0 0 0 0 0 0 0 0 127 0" result="hardAlpha"/>
<feOffset dy="1"/>
<feGaussianBlur stdDeviation="2"/>
<feColorMatrix type="matrix" values="0 0 0 0 0 0 0 0 0 0 0 0 0 0 0 0 0 0 0.25 0"/>
<feBlend mode="normal" in2="BackgroundImageFix" result="effect1_dropShadow"/>
<feBlend mode="normal" in="SourceGraphic" in2="effect1_dropShadow" result="shape"/>
</filter>
<filter id="filter1_d" x="17.7576" y="7.51515" width="55.4545" height="55.4545" filterUnits="userSpaceOnUse" color-interpolation-filters="sRGB">
<feFlood flood-opacity="0" result="BackgroundImageFix"/>
<feColorMatrix in="SourceAlpha" type="matrix" values="0 0 0 0 0 0 0 0 0 0 0 0 0 0 0 0 0 0 127 0" result="hardAlpha"/>
<feOffset dx="2" dy="1"/>
<feGaussianBlur stdDeviation="2.5"/>
<feColorMatrix type="matrix" values="0 0 0 0 0 0 0 0 0 0 0 0 0 0 0 0 0 0 0.25 0"/>
<feBlend mode="normal" in2="BackgroundImageFix" result="effect1_dropShadow"/>
<feBlend mode="normal" in="SourceGraphic" in2="effect1_dropShadow" result="shape"/>
</filter>
<linearGradient id="paint0_linear" x1="20.7576" y1="34.2424" x2="66.2121" y2="34.2424" gradientUnits="userSpaceOnUse">
<stop stop-color="#E9EAEC"/>
<stop offset="1" stop-color="#97AAB1" stop-opacity="0"/>
</linearGradient>
<clipPath id="clip0">
<rect width="50" height="50" fill="white" transform="translate(20 10)"/>
</clipPath>
</defs>
</svg>
